<svg width="16" height="16" viewBox="0 0 16 16" fill="none" xmlns="http://www.w3.org/2000/svg">
<path fill-rule="evenodd" clip-rule="evenodd" d="M1.33334 8.00016C1.33334 4.31826 4.31811 1.3335 8.00001 1.3335C11.6819 1.3335 14.6667 4.31826 14.6667 8.00016C14.6667 11.6821 11.6819 14.6668 8.00001 14.6668C4.31811 14.6668 1.33334 11.6821 1.33334 8.00016ZM8.00001 4.66683C7.63182 4.66683 7.33334 4.96531 7.33334 5.3335C7.33334 5.70169 7.63182 6.00016 8.00001 6.00016H8.00668C8.37487 6.00016 8.67334 5.70169 8.67334 5.3335C8.67334 4.96531 8.37487 4.66683 8.00668 4.66683H8.00001ZM8.66668 8.00016C8.66668 7.63197 8.3682 7.3335 8.00001 7.3335C7.63182 7.3335 7.33334 7.63197 7.33334 8.00016V10.6668C7.33334 11.035 7.63182 11.3335 8.00001 11.3335C8.3682 11.3335 8.66668 11.035 8.66668 10.6668V8.00016Z" fill="#686B6E"/>
</svg>
