<svg width="16" height="16" viewBox="0 0 16 16" fill="none" xmlns="http://www.w3.org/2000/svg">
<path fill-rule="evenodd" clip-rule="evenodd" d="M1.33337 7.99992C1.33337 4.31802 4.31814 1.33325 8.00004 1.33325C11.6819 1.33325 14.6667 4.31802 14.6667 7.99992C14.6667 11.6818 11.6819 14.6666 8.00004 14.6666C4.31814 14.6666 1.33337 11.6818 1.33337 7.99992ZM8.00004 4.66659C7.63185 4.66659 7.33337 4.96506 7.33337 5.33325C7.33337 5.70144 7.63185 5.99992 8.00004 5.99992H8.00671C8.3749 5.99992 8.67337 5.70144 8.67337 5.33325C8.67337 4.96506 8.3749 4.66659 8.00671 4.66659H8.00004ZM8.66671 7.99992C8.66671 7.63173 8.36823 7.33325 8.00004 7.33325C7.63185 7.33325 7.33337 7.63173 7.33337 7.99992V10.6666C7.33337 11.0348 7.63185 11.3333 8.00004 11.3333C8.36823 11.3333 8.66671 11.0348 8.66671 10.6666V7.99992Z" fill="#D0302F"/>
</svg>
