<svg width="16" height="16" viewBox="0 0 16 16" fill="none" xmlns="http://www.w3.org/2000/svg">
<path fill-rule="evenodd" clip-rule="evenodd" d="M1.33331 7.99992C1.33331 4.31802 4.31808 1.33325 7.99998 1.33325C11.6819 1.33325 14.6666 4.31802 14.6666 7.99992C14.6666 11.6818 11.6819 14.6666 7.99998 14.6666C4.31808 14.6666 1.33331 11.6818 1.33331 7.99992ZM7.99998 4.66659C7.63179 4.66659 7.33331 4.96506 7.33331 5.33325C7.33331 5.70144 7.63179 5.99992 7.99998 5.99992H8.00665C8.37484 5.99992 8.67331 5.70144 8.67331 5.33325C8.67331 4.96506 8.37484 4.66659 8.00665 4.66659H7.99998ZM8.66665 7.99992C8.66665 7.63173 8.36817 7.33325 7.99998 7.33325C7.63179 7.33325 7.33331 7.63173 7.33331 7.99992V10.6666C7.33331 11.0348 7.63179 11.3333 7.99998 11.3333C8.36817 11.3333 8.66665 11.0348 8.66665 10.6666V7.99992Z" fill="#E26F20"/>
</svg>
